<svg xmlns="http://www.w3.org/2000/svg" viewBox="0 0 179.05 179.05"><defs><style>.cls-1{fill:#64eed2;stroke:#64eed2;stroke-linejoin:round;stroke-width:5px;}</style></defs><title>logoLightAsset 5</title><g id="Layer_2" data-name="Layer 2"><g id="Layer_2-2" data-name="Layer 2"><path class="cls-1" d="M2.5,2.5H83a0,0,0,0,1,0,0V83a0,0,0,0,1,0,0H52.5a50,50,0,0,1-50-50V2.5A0,0,0,0,1,2.5,2.5Z"/><path class="cls-1" d="M2.5,96.05H83a0,0,0,0,1,0,0v30.5a50,50,0,0,1-50,50H2.5a0,0,0,0,1,0,0V96.05A0,0,0,0,1,2.5,96.05Z"/><path class="cls-1" d="M96.05,96.05h30.5a50,50,0,0,1,50,50v30.5a0,0,0,0,1,0,0H96.05a0,0,0,0,1,0,0V96.05A0,0,0,0,1,96.05,96.05Z"/><path class="cls-1" d="M146.05,2.5h30.5a0,0,0,0,1,0,0V83a0,0,0,0,1,0,0H96.05a0,0,0,0,1,0,0V52.5A50,50,0,0,1,146.05,2.5Z"/></g></g></svg>