<svg xmlns="http://www.w3.org/2000/svg" viewBox="0 0 612.7 222.79"><defs><style>.cls-1{fill:#64eed2;stroke:#64eed2;stroke-width:5px;}.cls-1,.cls-2{stroke-linejoin:round;}.cls-2{fill:#080e2c;stroke:#080e2c;stroke-width:3px;}.cls-3{font-size:150px;fill:#606;font-family:BigNoodleTitling, BigNoodleTitling;}</style></defs><title>logoLightAsset 3</title><g id="Layer_2" data-name="Layer 2"><g id="Layer_2-2" data-name="Layer 2"><rect class="cls-1" x="2.5" y="2.5" width="607.7" height="217.79"/><path class="cls-2" d="M24.37,24.37h80.5a0,0,0,0,1,0,0v80.5a0,0,0,0,1,0,0H74.37a50,50,0,0,1-50-50V24.37A0,0,0,0,1,24.37,24.37Z"/><path class="cls-2" d="M24.37,117.92h80.5a0,0,0,0,1,0,0v30.5a50,50,0,0,1-50,50H24.37a0,0,0,0,1,0,0v-80.5A0,0,0,0,1,24.37,117.92Z"/><path class="cls-2" d="M117.92,117.92h30.5a50,50,0,0,1,50,50v30.5a0,0,0,0,1,0,0h-80.5a0,0,0,0,1,0,0v-80.5A0,0,0,0,1,117.92,117.92Z"/><path class="cls-2" d="M167.92,24.37h30.5a0,0,0,0,1,0,0v80.5a0,0,0,0,1,0,0h-80.5a0,0,0,0,1,0,0V74.37a50,50,0,0,1,50-50Z"/><text class="cls-3" transform="translate(236.44 162.27)">ORIGAMI</text></g></g></svg>