<svg xmlns="http://www.w3.org/2000/svg" viewBox="0 0 305 305"><defs><style>.cls-1{fill:none;stroke:#212738;stroke-linejoin:round;stroke-width:5px;}</style></defs><title>Asset 5</title><g id="Layer_2" data-name="Layer 2"><g id="Layer_2-2" data-name="Layer 2"><polygon class="cls-1" points="102.5 2.5 102.5 102.5 2.5 102.5 52.5 52.5 102.5 2.5"/><polygon class="cls-1" points="302.5 102.5 302.5 202.5 202.5 202.5 202.5 302.5 102.5 302.5 102.5 202.5 2.5 202.5 2.5 102.5 102.5 102.5 102.5 2.5 202.5 2.5 202.5 102.5 302.5 102.5"/><polygon class="cls-1" points="302.5 102.5 202.5 102.5 202.5 2.5 252.5 52.5 302.5 102.5"/><polygon class="cls-1" points="102.5 202.5 102.5 302.5 2.5 202.5 102.5 202.5"/><polygon class="cls-1" points="302.5 202.5 202.5 302.5 202.5 202.5 302.5 202.5"/><rect class="cls-1" x="102.5" y="102.5" width="99.99" height="99.99"/></g></g></svg>