<svg xmlns="http://www.w3.org/2000/svg" viewBox="0 0 305 305"><defs><style>.cls-1,.cls-2{fill:none;stroke:#212738;stroke-linejoin:round;stroke-width:5px;}.cls-1{stroke-linecap:round;}</style></defs><title>Asset 2</title><g id="Layer_2" data-name="Layer 2"><g id="Layer_2-2" data-name="Layer 2"><rect class="cls-1" x="152.5" y="77.5" width="75" height="75"/><polygon class="cls-2" points="190 40 152.5 2.5 152.5 77.5 227.5 77.5 190 40"/><rect class="cls-1" x="77.5" y="77.5" width="75" height="75" transform="translate(0 230) rotate(-90)"/><polygon class="cls-2" points="40 115 2.5 152.5 77.5 152.5 77.5 77.5 40 115"/><polygon class="cls-2" points="152.5 227.5 77.5 227.5 115 265 152.5 302.5 152.5 227.5"/><rect class="cls-1" x="77.5" y="152.5" width="75" height="75"/><rect class="cls-1" x="77.5" y="152.5" width="75" height="75"/><polygon class="cls-2" points="227.5 152.5 227.5 227.5 265 190 302.5 152.5 227.5 152.5"/><rect class="cls-1" x="152.5" y="152.5" width="75" height="75" transform="translate(0 380) rotate(-90)"/><rect class="cls-1" x="152.5" y="152.5" width="75" height="75" transform="translate(0 380) rotate(-90)"/></g></g></svg>