<svg xmlns="http://www.w3.org/2000/svg" viewBox="0 0 304 304"><defs><style>.cls-1{fill:none;stroke:#212738;stroke-linejoin:round;stroke-width:5px;}</style></defs><title>Asset 3</title><g id="Layer_2" data-name="Layer 2"><g id="Layer_2-2" data-name="Layer 2"><polygon class="cls-1" points="152 2.5 152 152 2.5 152 152 2.5"/><polygon class="cls-1" points="226.75 226.75 152 301.5 152 226.75 226.75 226.75"/><polygon class="cls-1" points="301.5 152 226.75 226.75 226.75 152 301.5 152"/><polygon class="cls-1" points="301.5 2.5 301.5 152 226.75 152 226.75 226.75 152 226.75 152 301.5 77.25 226.75 2.5 152 152 152 152 2.5 301.5 2.5"/><polygon class="cls-1" points="301.5 2.5 152 2.5 152 77.25 226.75 77.25 301.5 2.5"/><polygon class="cls-1" points="152 226.75 226.75 152 226.75 226.75 152 226.75"/><polygon class="cls-1" points="114.63 264.13 39.88 189.38 39.88 264.13 114.63 264.13"/></g></g></svg>